<?xml version="1.0" encoding="utf-8"?>
<!-- Generator: Adobe Illustrator 16.0.3, SVG Export Plug-In . SVG Version: 6.00 Build 0)  -->
<!DOCTYPE svg PUBLIC "-//W3C//DTD SVG 1.1//EN" "http://www.w3.org/Graphics/SVG/1.1/DTD/svg11.dtd">
<svg version="1.1" id="Layer_1" xmlns="http://www.w3.org/2000/svg" xmlns:xlink="http://www.w3.org/1999/xlink" x="0px" y="0px"
	 width="153px" height="28px" viewBox="0 0 153 28" enable-background="new 0 0 153 28" xml:space="preserve">
<g>
	<path fill="#FFFFFF" d="M9.785,21.097c-0.281,0.708-0.457,1.264-0.457,1.665c0,0.708,0.527,1.019,2.037,1.019v0.799
		c-1.229-0.061-2.489-0.125-3.716-0.125c-1.125,0-2.28,0.064-3.403,0.125v-0.895c2.173,0,2.838-0.617,3.717-2.65l7.643-17.782h0.563
		l8.132,17.655c1.124,2.41,2.173,2.745,4.033,2.745v0.927c-1.404-0.061-2.77-0.125-4.174-0.125c-1.506,0-3.049,0.064-4.558,0.125
		V23.78c1.721,0,2.384-0.218,2.384-0.927c0-0.404-0.243-1.021-0.629-1.85L15.111,7.314l-3.538,9.096L9.785,21.097z"/>
	<path fill="#FFFFFF" d="M44.77,23.718v0.861c-1.26-0.061-2.557-0.125-3.855-0.125c-1.333,0-2.699,0.03-4.033,0.125v-0.861
		c2.243,0,2.56-0.341,2.56-2.773V5.1h-2.947c-1.471,0-2.908,0.122-3.75,0.863c-0.877,0.771-1.122,1.942-1.122,3.051h-0.982V3.898
		h20.477v5.116h-0.982c0-1.109-0.245-2.28-1.122-3.051C48.208,5.222,46.735,5.1,45.263,5.1h-2.947v15.75
		C42.316,23.377,42.528,23.718,44.77,23.718z"/>
	<path fill="#FFFFFF" d="M58.515,23.78c2.701,0,2.736-0.463,2.736-3.394V7.35c0-2.28-0.069-2.65-2.628-2.65V3.929
		c0.559,0.03,1.226,0.062,2.034,0.062c0.559,0,1.19-0.032,1.893-0.032c2.524,0,6.064-0.061,11.36-0.061
		c0,1.419,0.21,2.712,0.245,5.087h-0.842c0-2.653-1.612-4.01-5.327-4.039l-3.893-0.031v8.384h3.295c3.296,0,3.615-0.985,3.647-2.466
		h0.91c-0.104,1.265-0.14,2.126-0.14,3.022c0,0.86,0.072,1.724,0.14,2.923h-0.942c-0.038-1.476-0.354-2.465-3.615-2.465h-3.295
		v6.565c0,2.498,0.351,2.773,4.278,2.773c5.327,0,6.661-1.755,6.661-4.13h1.017c-0.349,2.593-0.667,3.947-0.667,5.057
		c-6.17,0-9.991-0.095-12.656-0.125c-1.822,0-3.086,0.064-4.209,0.125V23.78z"/>
	<path fill="#FFFFFF" d="M83.69,23.718c2.247,0,2.526-0.341,2.526-2.773V7.503c0-2.434-0.279-2.774-2.526-2.774V3.866
		c1.369,0.093,2.701,0.125,4.032,0.125c1.298,0,2.596-0.062,3.858-0.125v0.863c-2.242,0-2.523,0.341-2.523,2.774v13.441
		c0,2.278,0.281,2.74,5.26,2.74c3.506,0,5.854-0.987,5.854-4.098h0.982c-0.244,1.969-0.353,3.79-0.353,4.992
		c-6.45,0-10.413-0.125-13.079-0.125c-1.82,0-3.011,0.064-4.032,0.125V23.718z"/>
	<path fill="#FFFFFF" d="M108.483,23.78c2.7,0,2.735-0.463,2.735-3.394V7.35c0-2.28-0.073-2.65-2.633-2.65V3.929
		c0.563,0.03,1.229,0.062,2.033,0.062c0.564,0,1.194-0.032,1.896-0.032c2.523,0,6.067-0.061,11.36-0.061
		c0,1.419,0.21,2.712,0.245,5.087h-0.842c0-2.653-1.615-4.01-5.328-4.039l-3.893-0.031v8.384h3.295c3.297,0,3.61-0.985,3.645-2.466
		h0.915c-0.107,1.265-0.142,2.126-0.142,3.022c0,0.86,0.073,1.724,0.142,2.923h-0.949c-0.034-1.476-0.347-2.465-3.61-2.465h-3.295
		v6.565c0,2.498,0.349,2.773,4.275,2.773c5.329,0,6.664-1.755,6.664-4.13h1.018c-0.353,2.593-0.665,3.947-0.665,5.057
		c-6.171,0-9.995-0.095-12.662-0.125c-1.822,0-3.085,0.064-4.205,0.125V23.78z"/>
	<path fill="#FFFFFF" d="M147.125,9.259h-0.982c0-3.048-2.63-4.467-5.119-4.467c-2.63,0-4.665,1.231-4.665,3.481
		c0,2.56,2.771,3.33,5.154,4.346c2.418,1.019,6.415,2.558,6.415,6.135c0,3.606-2.559,6.32-8.132,6.32
		c-2.315,0-3.404-0.219-5.787-0.71l-0.143-4.87h0.951c0,2.559,2.908,4.562,5.645,4.562c2.767,0,5.188-1.635,5.188-3.884
		c0-2.927-3.647-3.976-6.693-5.299c-2.737-1.172-5.121-2.529-5.121-5.49c0-3.604,3.294-5.608,7.362-5.608
		c1.962,0,4.172,0.369,5.997,0.708L147.125,9.259z"/>
</g>
</svg>
